<svg width="194" height="160" viewBox="0 0 194 160" fill="none" xmlns="http://www.w3.org/2000/svg">
<path d="M154.013 113.749H54.3616C53.6637 113.749 53.1055 113.19 53.1055 112.492V45.4996C53.1055 43.2665 54.9199 41.4521 57.153 41.4521H151.362C153.595 41.4521 155.409 43.2665 155.409 45.4996V112.492C155.339 113.19 154.711 113.749 154.013 113.749Z" fill="#C0B4FC"/>
<path d="M127.983 137.544H80.3906V133.497C80.3906 131.264 82.205 129.449 84.4381 129.449H123.936C126.169 129.449 127.983 131.264 127.983 133.497V137.544Z" fill="#A695F9"/>
<path d="M154.294 117.517H54.0839C53.5256 117.517 53.0371 117.028 53.0371 116.47V110.957C53.0371 110.399 53.5256 109.91 54.0839 109.91H154.294C154.852 109.91 155.341 110.399 155.341 110.957V116.47C155.341 117.098 154.852 117.517 154.294 117.517Z" fill="#A695F9"/>
<path d="M112.98 117.517H95.3242V129.45H112.98V117.517Z" fill="#C0B4FC"/>
<path d="M135.382 29.7275H72.9946C70.2033 29.7275 67.9004 32.0304 67.9004 34.8218V76.6225C67.9004 79.4139 70.2033 81.7168 72.9946 81.7168H78.5076C79.9033 81.7168 81.0198 82.8333 81.0198 84.229V95.0455C81.0198 97.3484 83.6018 98.6045 85.486 97.2786L105.584 82.2052C106.003 81.8563 106.561 81.7168 107.119 81.7168H135.382C138.173 81.7168 140.476 79.4139 140.476 76.6225V34.8218C140.476 32.0304 138.173 29.7275 135.382 29.7275Z" fill="white" stroke="#A695F9" stroke-width="0.70147" stroke-miterlimit="10"/>
<path d="M83.5312 53.3848H118.912" stroke="#A695F9" stroke-width="0.697842" stroke-miterlimit="10"/>
<path d="M83.5312 60.3633H124.843" stroke="#A695F9" stroke-width="0.697842" stroke-miterlimit="10"/>
<path d="M83.5312 67.2725H124.843" stroke="#A695F9" stroke-width="0.697842" stroke-miterlimit="10"/>
<path d="M83.5312 74.1807H124.843" stroke="#A695F9" stroke-width="0.697842" stroke-miterlimit="10"/>
<path d="M122.292 45.3516L129.102 52.1611L150.517 30.7457L143.708 23.9362L122.292 45.3516Z" fill="#C0B4FC"/>
<path d="M128.402 52.6169L121.842 46.0572C121.773 45.9874 121.703 46.0572 121.703 46.127L119.609 54.5011C119.539 54.7802 119.749 54.9896 120.028 54.9198L128.402 52.8263C128.472 52.7565 128.472 52.6867 128.402 52.6169Z" fill="#A695F9"/>
<path d="M150.942 18.0742L156.455 23.5871C156.804 23.9361 156.804 24.5641 156.455 24.913L151.151 30.2166L144.312 23.3778L149.616 18.0742C149.965 17.7253 150.523 17.7253 150.942 18.0742Z" fill="#A695F9"/>
<path d="M92.5572 33.0706H95.1057C95.9757 33.0706 96.6103 33.2753 97.0094 33.6847C97.4086 34.0839 97.6082 34.7031 97.6082 35.5424V35.9722C97.6082 36.5249 97.5161 36.9753 97.3318 37.3233C97.1578 37.6713 96.8866 37.922 96.5181 38.0755V38.1062C97.3574 38.3928 97.777 39.14 97.777 40.3477V41.2689C97.777 42.0979 97.557 42.7325 97.1169 43.1726C96.687 43.6024 96.0524 43.8174 95.2132 43.8174H92.5572V33.0706ZM94.9061 37.4461C95.2439 37.4461 95.4946 37.3591 95.6584 37.1851C95.8324 37.0111 95.9194 36.7194 95.9194 36.31V35.7113C95.9194 35.3223 95.8477 35.0409 95.7045 34.8669C95.5714 34.6929 95.3565 34.6059 95.0596 34.6059H94.246V37.4461H94.9061ZM95.2132 42.2821C95.51 42.2821 95.73 42.2054 95.8733 42.0518C96.0166 41.8881 96.0883 41.6117 96.0883 41.2228V40.2863C96.0883 39.795 96.0013 39.4573 95.8273 39.273C95.6635 39.0786 95.3872 38.9813 94.9982 38.9813H94.246V42.2821H95.2132ZM98.7642 33.0706H100.453V42.2821H103.232V43.8174H98.7642V33.0706ZM106.423 43.9709C105.594 43.9709 104.959 43.7355 104.519 43.2647C104.079 42.7939 103.859 42.1286 103.859 41.2689V35.6191C103.859 34.7594 104.079 34.0941 104.519 33.6233C104.959 33.1525 105.594 32.9171 106.423 32.9171C107.252 32.9171 107.886 33.1525 108.326 33.6233C108.766 34.0941 108.987 34.7594 108.987 35.6191V41.2689C108.987 42.1286 108.766 42.7939 108.326 43.2647C107.886 43.7355 107.252 43.9709 106.423 43.9709ZM106.423 42.4357C107.006 42.4357 107.298 42.0825 107.298 41.3763V35.5117C107.298 34.8055 107.006 34.4523 106.423 34.4523C105.839 34.4523 105.548 34.8055 105.548 35.5117V41.3763C105.548 42.0825 105.839 42.4357 106.423 42.4357ZM112.524 43.9709C111.705 43.9709 111.08 43.7406 110.651 43.28C110.221 42.8092 110.006 42.1388 110.006 41.2689V35.6191C110.006 34.7492 110.221 34.0839 110.651 33.6233C111.08 33.1525 111.705 32.9171 112.524 32.9171C113.342 32.9171 113.967 33.1525 114.397 33.6233C114.826 34.0839 115.041 34.7492 115.041 35.6191V36.5403H113.445V35.5117C113.445 34.8055 113.153 34.4523 112.57 34.4523C111.986 34.4523 111.695 34.8055 111.695 35.5117V41.3917C111.695 42.0877 111.986 42.4357 112.57 42.4357C113.153 42.4357 113.445 42.0877 113.445 41.3917V39.2884H112.6V37.7531H115.041V41.2689C115.041 42.1388 114.826 42.8092 114.397 43.28C113.967 43.7406 113.342 43.9709 112.524 43.9709Z" fill="#C0B4FC"/>
</svg>
