<svg width="194" height="160" viewBox="0 0 194 160" fill="none" xmlns="http://www.w3.org/2000/svg">
<path d="M130.775 130.915H63.992C60.9913 130.915 58.5488 128.473 58.5488 125.472V26.448C58.5488 23.4473 60.9913 21.0049 63.992 21.0049H130.845C133.846 21.0049 136.288 23.4473 136.288 26.448V125.472C136.288 128.473 133.846 130.915 130.775 130.915Z" stroke="#A695F9" stroke-width="0.615776" stroke-miterlimit="10"/>
<path d="M134.613 133.009H67.8299C64.8292 133.009 62.3867 130.566 62.3867 127.566V28.5418C62.3867 25.5411 64.8292 23.0986 67.8299 23.0986H134.683C137.684 23.0986 140.126 25.5411 140.126 28.5418V127.566C140.126 130.566 137.684 133.009 134.613 133.009Z" fill="#C0B4FC"/>
<path d="M76.6829 38.7961C75.8744 38.7961 75.2551 38.5658 74.8253 38.1052C74.4056 37.6447 74.1958 36.9947 74.1958 36.1555V30.3829C74.1958 29.5437 74.4056 28.8937 74.8253 28.4332C75.2551 27.9726 75.8744 27.7423 76.6829 27.7423C77.4915 27.7423 78.1056 27.9726 78.5252 28.4332C78.9551 28.8937 79.17 29.5437 79.17 30.3829V31.519H77.5734V30.2755C77.5734 29.6102 77.2919 29.2775 76.729 29.2775C76.1661 29.2775 75.8846 29.6102 75.8846 30.2755V36.2783C75.8846 36.9333 76.1661 37.2609 76.729 37.2609C77.2919 37.2609 77.5734 36.9333 77.5734 36.2783V34.6356H79.17V36.1555C79.17 36.9947 78.9551 37.6447 78.5252 38.1052C78.1056 38.5658 77.4915 38.7961 76.6829 38.7961ZM81.4854 27.8958H83.7729L85.5231 38.6426H83.8343L83.5273 36.5086V36.5393H81.6082L81.3012 38.6426H79.7352L81.4854 27.8958ZM83.3277 35.0808L82.5754 29.7688H82.5447L81.8078 35.0808H83.3277ZM88.4928 38.7961C87.674 38.7961 87.0548 38.5658 86.6352 38.1052C86.2156 37.6344 86.0057 36.964 86.0057 36.0941V35.48H87.6024V36.2169C87.6024 36.9129 87.8941 37.2609 88.4775 37.2609C88.7641 37.2609 88.979 37.179 89.1223 37.0152C89.2758 36.8412 89.3526 36.5649 89.3526 36.1862C89.3526 35.7358 89.2502 35.3418 89.0455 35.004C88.8408 34.656 88.4621 34.2415 87.9094 33.7605C87.2135 33.1464 86.7273 32.5937 86.451 32.1024C86.1746 31.6009 86.0364 31.038 86.0364 30.4136C86.0364 29.5641 86.2514 28.9091 86.6812 28.4485C87.1111 27.9777 87.7355 27.7423 88.5543 27.7423C89.3628 27.7423 89.9718 27.9777 90.3812 28.4485C90.8008 28.9091 91.0107 29.5744 91.0107 30.4443V30.8896H89.414V30.3369C89.414 29.9684 89.3424 29.7023 89.1991 29.5385C89.0558 29.3645 88.846 29.2775 88.5696 29.2775C88.0067 29.2775 87.7252 29.6204 87.7252 30.3062C87.7252 30.6951 87.8276 31.0584 88.0323 31.3962C88.2472 31.7339 88.631 32.1433 89.1837 32.6244C89.8899 33.2385 90.3761 33.7963 90.6422 34.2978C90.9083 34.7993 91.0414 35.3878 91.0414 36.0634C91.0414 36.9436 90.8213 37.6191 90.3812 38.0899C89.9513 38.5607 89.3219 38.7961 88.4928 38.7961ZM92.0097 27.8958H96.6154V29.4311H93.6984V32.2713H96.0167V33.8065H93.6984V37.1073H96.6154V38.6426H92.0097V27.8958ZM102.241 38.7961C101.422 38.7961 100.803 38.5658 100.383 38.1052C99.9639 37.6344 99.754 36.964 99.754 36.0941V35.48H101.351V36.2169C101.351 36.9129 101.642 37.2609 102.226 37.2609C102.512 37.2609 102.727 37.179 102.871 37.0152C103.024 36.8412 103.101 36.5649 103.101 36.1862C103.101 35.7358 102.999 35.3418 102.794 35.004C102.589 34.656 102.21 34.2415 101.658 33.7605C100.962 33.1464 100.476 32.5937 100.199 32.1024C99.9229 31.6009 99.7847 31.038 99.7847 30.4136C99.7847 29.5641 99.9997 28.9091 100.43 28.4485C100.859 27.9777 101.484 27.7423 102.303 27.7423C103.111 27.7423 103.72 27.9777 104.13 28.4485C104.549 28.9091 104.759 29.5744 104.759 30.4443V30.8896H103.162V30.3369C103.162 29.9684 103.091 29.7023 102.947 29.5385C102.804 29.3645 102.594 29.2775 102.318 29.2775C101.755 29.2775 101.474 29.6204 101.474 30.3062C101.474 30.6951 101.576 31.0584 101.781 31.3962C101.996 31.7339 102.379 32.1433 102.932 32.6244C103.638 33.2385 104.124 33.7963 104.39 34.2978C104.657 34.7993 104.79 35.3878 104.79 36.0634C104.79 36.9436 104.57 37.6191 104.13 38.0899C103.7 38.5607 103.07 38.7961 102.241 38.7961ZM107.078 29.4311H105.313V27.8958H110.533V29.4311H108.767V38.6426H107.078V29.4311ZM113.807 38.7961C112.988 38.7961 112.363 38.5658 111.934 38.1052C111.504 37.6344 111.289 36.964 111.289 36.0941V27.8958H112.978V36.2169C112.978 36.5853 113.049 36.8515 113.193 37.0152C113.346 37.179 113.561 37.2609 113.837 37.2609C114.114 37.2609 114.323 37.179 114.467 37.0152C114.62 36.8515 114.697 36.5853 114.697 36.2169V27.8958H116.324V36.0941C116.324 36.964 116.11 37.6344 115.68 38.1052C115.25 38.5658 114.625 38.7961 113.807 38.7961ZM117.527 27.8958H120.106C120.946 27.8958 121.575 28.121 121.995 28.5713C122.414 29.0217 122.624 29.6818 122.624 30.5518V35.9866C122.624 36.8566 122.414 37.5167 121.995 37.9671C121.575 38.4174 120.946 38.6426 120.106 38.6426H117.527V27.8958ZM120.076 37.1073C120.352 37.1073 120.562 37.0254 120.705 36.8617C120.859 36.6979 120.935 36.4318 120.935 36.0634V30.475C120.935 30.1066 120.859 29.8405 120.705 29.6767C120.562 29.5129 120.352 29.4311 120.076 29.4311H119.216V37.1073H120.076ZM125.045 34.0675L123.003 27.8958H124.799L125.951 31.8414H125.981L127.133 27.8958H128.776L126.734 34.0675V38.6426H125.045V34.0675Z" fill="white"/>
<path d="M113.541 78.5068H129.94" stroke="white" stroke-width="2.09353" stroke-miterlimit="10"/>
<path d="M103.699 87.8584H130.357" stroke="white" stroke-width="2.09353" stroke-miterlimit="10"/>
<path d="M102.514 97.209H129.381" stroke="white" stroke-width="2.09353" stroke-miterlimit="10"/>
<path d="M105.793 105.095H129.799" stroke="white" stroke-width="2.09353" stroke-miterlimit="10"/>
<path d="M128.961 114.445H130.217" stroke="white" stroke-width="0.949763" stroke-miterlimit="10"/>
<path d="M71.7383 46.4053H129.24" stroke="white" stroke-width="0.949763" stroke-miterlimit="10"/>
<path d="M71.7383 54.291H129.24" stroke="white" stroke-width="0.949763" stroke-miterlimit="10"/>
<path d="M71.7383 63.6416H129.24" stroke="white" stroke-width="0.949763" stroke-miterlimit="10"/>
<path d="M71.7383 72.4346H129.24" stroke="white" stroke-width="0.949763" stroke-miterlimit="10"/>
<path d="M71.7383 80.251H103.769" stroke="white" stroke-width="0.949763" stroke-miterlimit="10"/>
<path d="M71.7383 89.6016H97.4189" stroke="white" stroke-width="0.949763" stroke-miterlimit="10"/>
<path d="M71.7383 99.0225H97.4886" stroke="white" stroke-width="0.949763" stroke-miterlimit="10"/>
<path d="M71.7383 106.838H99.652" stroke="white" stroke-width="0.949763" stroke-miterlimit="10"/>
<path d="M71.7383 116.189H108.933" stroke="white" stroke-width="0.949763" stroke-miterlimit="10"/>
<path d="M105.724 80.1114C97.6988 87.7877 97.3499 100.488 105.026 108.514C112.702 116.539 125.403 116.888 133.428 109.211C141.453 101.535 141.802 88.8345 134.126 80.8093C126.45 72.7841 113.749 72.505 105.724 80.1114ZM132.242 108.025C124.845 115.073 113.191 114.794 106.143 107.397C99.0945 99.9999 99.3736 88.346 106.771 81.2978C114.168 74.2496 125.822 74.5287 132.87 81.9258C139.988 89.323 139.639 101.047 132.242 108.025Z" fill="#A695F9"/>
<path d="M139.36 109.91L133.847 115.143C133.359 115.632 132.521 115.632 132.033 115.074L131.126 114.097C130.637 113.608 130.637 112.771 131.195 112.282L136.708 107.049C137.197 106.56 138.034 106.56 138.523 107.118L139.43 108.095C139.849 108.584 139.849 109.421 139.36 109.91Z" fill="#A695F9"/>
<path d="M171.809 145.918L168.599 148.919C167.273 150.175 165.179 150.105 163.923 148.779L133.148 116.539L141.174 108.933L171.948 141.243C173.205 142.569 173.135 144.662 171.809 145.918Z" fill="#A695F9"/>
</svg>
