<?xml version="1.0" encoding="utf-8"?>
<!-- Generator: Adobe Illustrator 22.0.1, SVG Export Plug-In . SVG Version: 6.00 Build 0)  -->
<svg version="1.1" id="Layer_1" xmlns="http://www.w3.org/2000/svg" xmlns:xlink="http://www.w3.org/1999/xlink" x="0px" y="0px"
	 viewBox="0 0 278 228" style="enable-background:new 0 0 278 228;" xml:space="preserve">
<style type="text/css">
	.st0{fill:#BDB2D7;}
	.st1{fill:#9D92C6;}
	.st2{fill:none;stroke:#231F20;stroke-width:0.9814;stroke-miterlimit:10;}
	.st3{fill:none;stroke:#231F20;stroke-width:1.0694;stroke-miterlimit:10;}
	.st4{fill:none;stroke:#231F20;stroke-width:0.6794;stroke-miterlimit:10;}
	.st5{fill:#FFFFFF;}
	.st6{fill:none;stroke:#231F20;stroke-miterlimit:10;}
	.st7{fill:#FFFFFF;stroke:#A695F9;stroke-width:1.0052;stroke-miterlimit:10;}
	.st8{fill:#C0B4FC;}
	.st9{font-family:'BebasNeue-Regular';}
	.st10{font-size:22px;}
	.st11{fill:none;stroke:#FFFFFF;stroke-width:1.361;stroke-miterlimit:10;}
	.st12{fill:#A695F9;}
</style>
<g>
	<path class="st7" d="M174.1,202.5h-111c-4.3,0-7.8-3.5-7.8-7.8V30.4c0-4.3,3.5-7.8,7.8-7.8h111c4.3,0,7.8,3.5,7.8,7.8v164.2
		C181.9,199,178.4,202.5,174.1,202.5z"/>
	<path class="st8" d="M180.3,205.9h-111c-4.3,0-7.8-3.5-7.8-7.8V33.8c0-4.3,3.5-7.8,7.8-7.8h111c4.3,0,7.8,3.5,7.8,7.8v164.2
		C188.2,202.4,184.6,205.9,180.3,205.9z"/>
	<g>
		<path class="st5" d="M154.4,99.4c1-1.1,3-0.4,3,1.1v23.3c0,4-3.3,7.3-7.3,7.3H99.6c-4,0-7.3-3.3-7.3-7.3v-23.3
			c0-1.6,1.9-2.3,3-1.1c7.3,8,17.9,13,29.6,13C136.5,112.4,147.1,107.4,154.4,99.4z"/>
		<path class="st5" d="M153.5,88.6c2.1,1.1,2.7,3.9,1.3,5.9c-6.7,9.3-17.6,15.4-30,15.4c-12.3,0-23.3-6.1-30-15.4
			c-1.4-1.9-0.8-4.8,1.3-5.9c1-0.6,2.2-0.9,3.5-0.9H150C151.3,87.8,152.5,88.1,153.5,88.6z"/>
		<path class="st5" d="M135.7,79.4v6.1c0,0.4-0.4,0.8-0.9,0.8h-1.7c-0.5,0-0.9-0.3-0.9-0.8v-2.7c0-0.9-1.3-1.7-2.8-1.7h-9.1
			c-1.6,0-2.8,0.8-2.8,1.7v2.7c0,0.4-0.4,0.8-0.9,0.8h-1.7c-0.5,0-0.9-0.3-0.9-0.8v-6.1c0-0.9,1.3-1.7,2.8-1.7h16.2
			C134.5,77.7,135.7,78.5,135.7,79.4z"/>
	</g>
	<text transform="matrix(1 0 0 1 109.1665 56.865)" class="st5 st9 st10">JOBS</text>
	<g>
		<line class="st11" x1="84.4" y1="155" x2="166.9" y2="155"/>
		<line class="st11" x1="84.4" y1="166.2" x2="166.9" y2="166.2"/>
		<line class="st11" x1="84.4" y1="179.6" x2="166.9" y2="179.6"/>
		<line class="st11" x1="84.4" y1="192.2" x2="166.9" y2="192.2"/>
	</g>
	<g>
		<path class="st12" d="M146.7,91.5c-9.2,8.8-9.6,23.3-0.8,32.6c8.8,9.2,23.3,9.6,32.5,0.8c9.2-8.8,9.6-23.3,0.8-32.6
			C170.5,83,155.9,82.7,146.7,91.5z M177.1,123.5c-8.5,8.1-21.9,7.7-29.9-0.7c-8.1-8.5-7.7-21.9,0.7-29.9c8.5-8.1,21.9-7.7,30,0.7
			C186,102,185.6,115.4,177.1,123.5z"/>
		<path class="st12" d="M185,125.8l-5.8,5.5c-0.7,0.7-1.9,0.7-2.6-0.1l-0.6-0.6c-0.7-0.7-0.7-1.9,0.1-2.6l5.8-5.5
			c0.7-0.7,1.9-0.7,2.6,0.1l0.6,0.6C185.7,124,185.7,125.1,185,125.8z"/>
		<path class="st12" d="M221.8,167.6l-2.3,2.2c-1.9,1.8-4.9,1.7-6.7-0.2l-34.6-36.4l9.2-8.7l34.6,36.4
			C223.8,162.7,223.7,165.8,221.8,167.6z"/>
	</g>
</g>
</svg>
