<svg width="194" height="160" viewBox="0 0 194 160" fill="none" xmlns="http://www.w3.org/2000/svg">
<path d="M135.659 148.414H58.199C55.1983 148.414 52.7559 145.971 52.7559 142.971V28.3152C52.7559 25.3145 55.1983 22.8721 58.199 22.8721H135.659C138.66 22.8721 141.103 25.3145 141.103 28.3152V142.901C141.172 145.971 138.73 148.414 135.659 148.414Z" stroke="#A695F9" stroke-width="0.701471" stroke-miterlimit="10"/>
<path d="M140.056 150.717H62.5955C59.5948 150.717 57.1523 148.275 57.1523 145.274V30.6883C57.1523 27.6876 59.5948 25.2451 62.5955 25.2451H140.056C143.057 25.2451 145.499 27.6876 145.499 30.6883V145.274C145.499 148.275 143.057 150.717 140.056 150.717Z" fill="#C0B4FC"/>
<path d="M68.0623 32.2816H69.6897L70.442 40.5412H70.4727L71.271 32.2816H73.1133L73.9116 40.5412H73.9423L74.6946 32.2816H76.1531L75.0631 43.0283H72.9598L72.1921 35.7819H72.1614L71.3938 43.0283H69.1523L68.0623 32.2816ZM77.0073 32.2816H78.6961V36.657H80.5077V32.2816H82.1965V43.0283H80.5077V38.1923H78.6961V43.0283H77.0073V32.2816ZM83.4542 32.2816H85.143V43.0283H83.4542V32.2816ZM87.7281 33.8168H85.9625V32.2816H91.1824V33.8168H89.4168V43.0283H87.7281V33.8168ZM92 32.2816H96.6058V33.8168H93.6888V36.657H96.007V38.1923H93.6888V41.4931H96.6058V43.0283H92V32.2816ZM97.5773 32.2816H100.064C100.904 32.2816 101.533 32.5067 101.953 32.9571C102.372 33.4074 102.582 34.0676 102.582 34.9375V35.9969C102.582 36.8668 102.372 37.527 101.953 37.9773C101.533 38.4277 100.904 38.6529 100.064 38.6529H99.2661V43.0283H97.5773V32.2816ZM100.064 37.1176C100.341 37.1176 100.545 37.0408 100.679 36.8873C100.822 36.7338 100.893 36.4728 100.893 36.1043V34.8301C100.893 34.4616 100.822 34.2006 100.679 34.0471C100.545 33.8936 100.341 33.8168 100.064 33.8168H99.2661V37.1176H100.064ZM104.265 32.2816H106.552L108.302 43.0283H106.614L106.307 40.8943V40.925H104.387L104.08 43.0283H102.514L104.265 32.2816ZM106.107 39.4665L105.355 34.1546H105.324L104.587 39.4665H106.107ZM109.122 32.2816H111.609C112.448 32.2816 113.078 32.5067 113.497 32.9571C113.917 33.4074 114.127 34.0676 114.127 34.9375V35.9969C114.127 36.8668 113.917 37.527 113.497 37.9773C113.078 38.4277 112.448 38.6529 111.609 38.6529H110.81V43.0283H109.122V32.2816ZM111.609 37.1176C111.885 37.1176 112.09 37.0408 112.223 36.8873C112.366 36.7338 112.438 36.4728 112.438 36.1043V34.8301C112.438 34.4616 112.366 34.2006 112.223 34.0471C112.09 33.8936 111.885 33.8168 111.609 33.8168H110.81V37.1176H111.609ZM115.044 32.2816H119.65V33.8168H116.733V36.657H119.051V38.1923H116.733V41.4931H119.65V43.0283H115.044V32.2816ZM120.621 32.2816H123.124C123.994 32.2816 124.628 32.4863 125.027 32.8957C125.426 33.2948 125.626 33.914 125.626 34.7533V35.4135C125.626 36.5291 125.258 37.2353 124.521 37.5321V37.5628C124.93 37.6856 125.217 37.9364 125.38 38.3151C125.554 38.6938 125.641 39.2004 125.641 39.835V41.7234C125.641 42.0304 125.652 42.2812 125.672 42.4756C125.693 42.6599 125.744 42.8441 125.826 43.0283H124.106C124.045 42.8543 124.004 42.6906 123.983 42.537C123.963 42.3835 123.953 42.1072 123.953 41.708V39.7429C123.953 39.2516 123.871 38.9087 123.707 38.7143C123.553 38.5198 123.282 38.4226 122.893 38.4226H122.31V43.0283H120.621V32.2816ZM122.924 36.8873C123.262 36.8873 123.512 36.8003 123.676 36.6263C123.85 36.4523 123.937 36.1606 123.937 35.7512V34.9222C123.937 34.5333 123.866 34.2518 123.722 34.0778C123.589 33.9038 123.374 33.8168 123.077 33.8168H122.31V36.8873H122.924Z" fill="white"/>
<path d="M127.485 144.316C133.39 144.316 138.176 139.529 138.176 133.625C138.176 127.721 133.39 122.935 127.485 122.935C121.581 122.935 116.795 127.721 116.795 133.625C116.795 139.529 121.581 144.316 127.485 144.316Z" fill="white"/>
<path d="M130.173 135.434V127.101C130.173 126.498 129.679 126.06 129.131 126.06H125.842C125.238 126.06 124.8 126.553 124.8 127.101V135.434H121.236L127.486 141.191L133.736 135.434H130.173Z" fill="#C0B4FC"/>
<path d="M87.9967 67.5336H73.2025C71.1787 67.5336 69.5039 65.8588 69.5039 63.8351V58.3919C69.5039 56.3682 71.1787 54.6934 73.2025 54.6934H87.9967C90.0205 54.6934 91.6255 56.3682 91.6255 58.3919V63.8351C91.6255 65.8588 90.0205 67.5336 87.9967 67.5336Z" fill="#A695F9"/>
<path d="M87.9967 98.3784H73.2025C71.1787 98.3784 69.5039 96.7036 69.5039 94.6798V89.2366C69.5039 87.2129 71.1787 85.5381 73.2025 85.5381H87.9967C90.0205 85.5381 91.6255 87.2129 91.6255 89.2366V94.6798C91.6255 96.7036 90.0205 98.3784 87.9967 98.3784Z" fill="#A695F9"/>
<path d="M87.9967 129.782H73.2025C71.1787 129.782 69.5039 128.107 69.5039 126.083V120.64C69.5039 118.616 71.1787 116.941 73.2025 116.941H87.9967C90.0205 116.941 91.6255 118.616 91.6255 120.64V126.083C91.6255 128.177 90.0205 129.782 87.9967 129.782Z" fill="#A695F9"/>
<path d="M74.9492 61.1826H116.331" stroke="white" stroke-width="0.607192" stroke-miterlimit="10"/>
<path d="M74.9492 56.8564H110.4" stroke="white" stroke-width="0.607192" stroke-miterlimit="10"/>
<path d="M74.9492 65.9277H116.331" stroke="white" stroke-width="0.607192" stroke-miterlimit="10"/>
<path d="M74.9492 92.0273H116.331" stroke="white" stroke-width="0.607192" stroke-miterlimit="10"/>
<path d="M74.9492 87.7705H110.4" stroke="white" stroke-width="0.607192" stroke-miterlimit="10"/>
<path d="M74.9492 96.7734H116.331" stroke="white" stroke-width="0.607192" stroke-miterlimit="10"/>
<path d="M74.9492 123.151H106.631" stroke="white" stroke-width="0.530848" stroke-miterlimit="10"/>
<path d="M74.9492 118.895H102.025" stroke="white" stroke-width="0.530848" stroke-miterlimit="10"/>
<path d="M74.9492 127.897H106.631" stroke="white" stroke-width="0.530848" stroke-miterlimit="10"/>
</svg>
